<?xml version="1.0" encoding="UTF-8"?>
<svg id="Calque_1" data-name="Calque 1" xmlns="http://www.w3.org/2000/svg" viewBox="0 0 276.76 368.33">
  <defs>
    <style>
      .cls-1 {
        fill: #010101;
      }
    </style>
  </defs>
  <path class="cls-1" d="M134.55,270.88c-30.77,64.44-75.86,108.45-107.91,95.05s-35.7-77.68-8.15-143.57,82.02-118.46,107.91-95.05c42.93,38.82,36.42,84.37,8.15,143.57Z"/>
  <path class="cls-1" d="M240.75,178.66c-29.65,19.7-61.74,25.16-74.47,8.3s7.72-39.66,28.37-69.35c17.97-25.83,59.51-30.92,74.47-8.3,19.39,29.33-1.13,51.25-28.37,69.35Z"/>
  <path class="cls-1" d="M196.32,80.68c-19.95,29.49-47.55,46.72-65.73,35.96-18.18-10.76-7.93-39.62-.1-74.93,6.81-30.72,43.3-51.21,65.73-35.96,29.08,19.77,18.43,47.84.1,74.93Z"/>
  <path class="cls-1" d="M101.05,65.38c-2.95,35.48-18.57,64.03-39.68,63.55-21.12-.47-26.32-30.66-36.79-65.27C15.47,33.54,37.24-2.2,64.26.11c35.03,2.99,39.5,32.68,36.79,65.27Z"/>
</svg>