<?xml version="1.0" encoding="UTF-8"?>
<svg id="Calque_vectoriel" data-name="Calque vectoriel" xmlns="http://www.w3.org/2000/svg" viewBox="0 0 2690.03 1320.04">
  <defs>
    <style>
      .cls-1 {
        fill: none;
      }
    </style>
  </defs>
  <path d="M1225.91,768.76c-.07-.21.19-.41.37-.28.51.25-.29.83-.37.28Z"/>
  <path d="M321.06,912.25c-21.85-3.57-27.44-20.12-32.83-38.82-4.35-12.28-9.27-24.29-15.01-35.98-29.41-57.61-74.4-109.63-84.43-175.31-8.83-53.51,16.06-110.74,62.74-138.95,77.84-46.56,172.7,3.81,159.21,98.14-10.23,57.69-60.65,105.41-106.85,137.76,22.14,37.34,45.65,76.58,53.14,119.79.43,19.11-16.56,36.29-35.97,33.38ZM270.86,702.52c28.29-21,65.67-53.94,74.77-88.88,4.86-23.21-8.36-44.77-33.76-42.45-32.17,1.62-56.89,31.45-58.98,62.5-1.82,24.28,7.88,47.29,17.97,68.84Z"/>
  <path d="M422.81,793.98c-35.09-64.44,23.22-161.4,98.5-152.4-4.65-25.66-7.13-53.5-21.35-75.97-11.45,14.37-16.85,32.93-18.85,50.97,1.8,10.93-.87,22.6-9.03,30.5-16.17,16.63-45.41,10.51-53.55-10.58-7.6-23.94.74-50.05,8.4-73.02,25.68-73.34,100.71-94.95,137.58-16.61,17.59,39.8,21,83.97,27.77,126.49,1.19,13.77,6.22,27.37,5.44,41.19-1.35,12.72-11.51,23.83-23.75,27.13-14,4.06-29.72-2.48-36.98-15.05-2.57-4.84-4.41-10.27-8.63-14.04-11.48-9.82-27.62-6.62-36.63,4.85-9.11,11.8-17.98,29.33-11.93,44.16,6.58,9.1,18.85,10.56,28.82,6.75,11.02-3.6,18.69-12.55,28.8-17.67,20.59-9.44,46.27,7.5,45.5,30.18.38,21.93-21.79,33.67-38.5,43.04-40.67,23.16-97.76,11.74-121.61-29.92Z"/>
  <path class="cls-1" d="M17.16,836.51c-35.09-64.44,23.22-161.4,98.5-152.4-4.65-25.66-7.13-53.5-21.35-75.97-11.45,14.37-16.85,32.93-18.85,50.97,1.8,10.93-.87,22.6-9.03,30.5-16.17,16.63-45.41,10.51-53.55-10.58-7.6-23.94.74-50.05,8.4-73.02,25.68-73.34,100.71-94.95,137.58-16.61,17.59,39.8,21,83.97,27.77,126.49,1.19,13.77,6.22,27.37,5.44,41.19-1.35,12.72-11.51,23.83-23.75,27.13-14,4.06-29.72-2.48-36.98-15.05-2.57-4.84-4.41-10.27-8.63-14.04-11.48-9.82-27.62-6.62-36.63,4.85-9.11,11.8-17.98,29.33-11.93,44.16,6.58,9.1,18.85,10.56,28.82,6.75,11.02-3.6,18.69-12.55,28.8-17.67,20.59-9.44,46.27,7.5,45.5,30.18.38,21.93-21.79,33.67-38.5,43.04-40.67,23.16-97.76,11.74-121.61-29.92Z"/>
  <path class="cls-1" d="M2513.75,979.43c-35.09-64.44,23.22-161.4,98.5-152.4-4.65-25.66-7.13-53.5-21.35-75.97-11.45,14.37-16.85,32.93-18.85,50.97,1.8,10.93-.87,22.6-9.03,30.5-16.17,16.63-45.41,10.51-53.55-10.58-7.6-23.94.74-50.05,8.4-73.02,25.68-73.34,100.71-94.95,137.58-16.61,17.59,39.8,21,83.97,27.77,126.49,1.19,13.77,6.22,27.37,5.44,41.19-1.35,12.72-11.51,23.83-23.75,27.13-14,4.06-29.72-2.48-36.98-15.05-2.57-4.84-4.41-10.27-8.63-14.04-11.48-9.82-27.62-6.62-36.63,4.85-9.11,11.8-17.98,29.33-11.93,44.16,6.58,9.1,18.85,10.56,28.82,6.75,11.02-3.6,18.69-12.55,28.8-17.67,20.59-9.44,46.27,7.5,45.5,30.18.38,21.93-21.79,33.67-38.5,43.04-40.67,23.16-97.76,11.74-121.61-29.92Z"/>
  <path class="cls-1" d="M1448.75,174.91c-64.44,35.09-161.4-23.22-152.4-98.5-25.66,4.65-53.5,7.13-75.97,21.35,14.37,11.45,32.93,16.85,50.97,18.85,10.93-1.8,22.6.87,30.5,9.03,16.63,16.17,10.51,45.41-10.58,53.55-23.94,7.6-50.05-.74-73.02-8.4-73.34-25.68-94.95-100.71-16.61-137.58,39.8-17.59,83.97-21,126.49-27.77,13.77-1.19,27.37-6.22,41.19-5.44,12.72,1.35,23.83,11.51,27.13,23.75,4.06,14-2.48,29.72-15.05,36.98-4.84,2.57-10.27,4.41-14.04,8.63-9.82,11.48-6.62,27.62,4.85,36.63,11.8,9.11,29.33,17.98,44.16,11.93,9.1-6.58,10.56-18.85,6.75-28.82-3.6-11.02-12.55-18.69-17.67-28.8-9.44-20.59,7.5-46.27,30.18-45.5,21.93-.38,33.67,21.79,43.04,38.5,23.16,40.67,11.74,97.76-29.92,121.61Z"/>
  <path class="cls-1" d="M1507.09,1315.76c-64.44,35.09-161.4-23.22-152.4-98.5-25.66,4.65-53.5,7.13-75.97,21.35,14.37,11.45,32.93,16.85,50.97,18.85,10.93-1.8,22.6.87,30.5,9.03,16.63,16.17,10.51,45.41-10.58,53.55-23.94,7.6-50.05-.74-73.02-8.4-73.34-25.68-94.95-100.71-16.61-137.58,39.8-17.59,83.97-21,126.49-27.77,13.77-1.19,27.37-6.22,41.19-5.44,12.72,1.35,23.83,11.51,27.13,23.75,4.06,14-2.48,29.72-15.05,36.98-4.84,2.57-10.27,4.41-14.04,8.63-9.82,11.48-6.62,27.62,4.85,36.63,11.8,9.11,29.33,17.98,44.16,11.93,9.1-6.58,10.56-18.85,6.75-28.82-3.6-11.02-12.55-18.69-17.67-28.8-9.44-20.59,7.5-46.27,30.18-45.5,21.93-.38,33.67,21.79,43.04,38.5,23.16,40.67,11.74,97.76-29.92,121.61Z"/>
  <path d="M771.42,774.56c-30.48-4.11-35.85-46.97-42.49-71.42-9.24-40.19-12.01-82.2-26.84-120.93-13.39,43.36-14.03,89.63-12.81,134.66.17,4.71.42,9.41.6,14.11,1.59,20.14-17.13,37.91-37.25,34.8-21.35-2.77-28.51-21.9-30.74-40.79-2.93-14.58-5.71-29.19-8.66-43.77-8.68-40.15-16.96-80.4-26.24-120.41-2.92-15.54-9.94-30.93-8.75-46.91,2.72-24.28,33.44-36.94,52.49-21.5,14.83,11.1,13.13,32.09,18.76,48.29,21.58-37.77,71.79-46.68,98.87-9.66,29.9,44.4,31.89,100.5,43.08,151.43,3.54,15.96,6.79,32.29,14.42,46.89,10.14,22.4-10.27,49.16-34.45,45.2Z"/>
  <path d="M839.8,746.86c-19.82-8.15-34.7-25.75-41.95-45.66-20.95-57.46,8.48-120.41,46.24-163.94,20.25-21.25,47.9-48.1,79.77-40.82,13.89-73.89,21.84-148.93,42.1-221.53,2.82-10.89,5.36-23.17,15.23-30.03,20.81-17.06,53.08-.58,52.44,26.09,0,5.38-1.58,10.42-2.96,15.54-5.86,21.78-11.24,43.7-15.75,65.81-21.69,84.8-40.88,437.98-175.12,394.55ZM862.08,683.82c27.65-33.11,37-77.55,47.48-118.44-28.92,21.55-67.94,82.92-47.48,118.44Z"/>
  <path d="M1064.55,820.63c-66-.27-123.65-63.86-110.23-129.99,12.83-83.07,107.69-147.66,180.84-87.9,2.99-31.61,5.04-105.19-42.17-99.64-25.52,7.61-25.47,42.67-62.27,29.95-51.56-28.07,8.46-85.01,44.89-93.15,102.28-20.84,135.99,85.52,124.88,168.05-6.57,35.93-9.51,119.9-65.18,101.01-23.28-9.63-22.87-39.37-40.52-54.56-35.66-30.29-77.64,20.91-76.7,56.79,1.15,26.33,27.08,45.69,52.53,43.93,19.51-1.74,34.86-15.05,52.16-22.42,12.52-3.63,26.75,1.21,34.67,11.52,16.15,21.04,1.67,45.49-19.98,55.03-22.36,12.12-47.06,22.5-72.94,21.37Z"/>
  <path d="M1309.04,1060.44c-41.11-5.52-46.79-73.46-60.01-105.81-12.61-40.22-25.17-80.46-38.08-120.59-5.31-18.94-14.48-37.18-16.45-56.86-.12-38.97,57.45-44.72,64.83-6.26,18.13,56.36,36.34,112.74,53.79,169.34,57.89-218.24,141.42-464.53,360.7-566.49,37.32-16.41,150.66-57.27,173.3-8.76,7.66,17.52-2.95,38.76-21.39,43.62-11.79,3.63-24.02-2.09-36.1-.37-34.37,3.54-67.76,15.08-98.8,29.96-142.39,71.24-220.77,222.08-269.03,366.57.27-.78.54-1.56.81-2.34.16-.46.32-.93.48-1.39-23.38,67.04-40.37,136.01-60.52,204.02-6.95,25.64-21.23,59.91-53.52,55.35Z"/>
  <path d="M1491.28,1105.06c-40.81-7.13-78.43-34.91-95.07-73.14-28.38-70.36,14.66-155.13,81.17-186.13,50.81-23.57,115.82,6.22,114.26,66.39-.71,23.82-12.07,46.67-29.37,62.86-28.73,27.55-72.49,28.28-108.94,18.38,1.87,25.1,30.86,48,55.37,46.97,15.26-2.59,19.93-20.21,33.69-25.49,15.87-7.3,36.3,1.21,42.73,17.35,10.07,23.26-10.98,43.98-28.23,56.84-18.65,13.95-42.64,19.56-65.61,15.97ZM1499.51,933.67c12.48-.06,23.88-8.24,26.36-20.75,2.49-7.62-6.2-10.24-12.2-9.64-16.73,2.09-29.81,15.3-40.26,27.59,8.53,2.04,17.32,3.25,26.11,2.8Z"/>
  <path d="M1757.49,1140.39c-42.63-4.75-50.47-106.77-54.55-141.44-2.44-17.08-2.17-44.25-6.77-66.46-2.92-14.13-23.05-14.46-26.56-.46-7.96,31.8-8.02,76.77-9.45,100.27-.02.39-.03.78-.02,1.17.48,20.41,1.35,40.82,2.28,61.19.02.4.02.8,0,1.2-1.46,39.72-58.79,43.69-65.19,3.84-.73-6.32-.95-12.72-1.41-19.07-1.91-36.44-1.52-72.95-2.18-109.43.42-40.51-2.36-81.55,3.82-121.71.07-.48.16-.95.29-1.42,6.54-25.14,39.87-31.25,56.03-13.28,3.44,3.83,8.72,5.32,13.71,4.04,35.5-9.09,71.84,16.84,83.89,50.65,16.69,42.53,13.19,89.41,20.06,133.94,3.52,21.24,6.66,43.52,15.77,63.15.42.91.97,1.75,1.56,2.55,16.42,22.4-3.38,55.58-31.29,51.27Z"/>
  <g>
    <path d="M1861.24,1147.7c-30.5.19-57.66-23.1-66.01-51.82-13.6-49.44-10.45-101.62-11.72-152.42,1.92-65.41-5.48-130.32-14.4-195-2.74-22.16-5.22-44.42-5.78-66.76,0-.27-.03-.54-.07-.81-3.06-21.19,7.58-42.84,30.93-44.12,20-1.31,36.74,17.16,34.44,36.88-.04.33-.06.67-.06,1,.26,18.51,2.06,37.05,4.18,55.4,9.25,70.45,18.47,140.65,16.19,211.76,0,.15,0,.3,0,.45,1.48,43.66-2.07,88.75,8.37,131.44,1.06,4.35,4.29,7.91,8.61,9.1,9.12,2.51,23.59.72,35.68,1.37,14.19.77,22.17,16.65,14.4,28.54-3.38,5.17-7.42,9.94-11.63,14.25-11.29,11.73-26.49,20.54-43.11,20.73Z"/>
    <path d="M1821.41,867.03c-15.58-13.32-14.12-38.88,1.61-51.47,7.72-5.85,16.56-10.76,25.86-13.97,6.22-2.14,12.74-3.36,19.31-3.4,30.97-.19,46.15,22,21.86,50.8-4.5,5.59-10.45,9.76-16.76,13.12-3.34,1.78-6.51,3.85-9.45,6.23-12.1,9.77-30.77,9.35-42.43-1.31Z"/>
  </g>
  <path d="M1930.47,1098.2c-54.11-35.21-57.13-135.75-44.43-192.7,2.21-9.16,4.22-18.73,9.99-26.41,15.69-21.24,45.34-24.16,52.38.48,3.98,11.65,4.38,20.62,1.34,30.72-4,13.29-6.04,27.11-5.58,40.98.29,8.6.92,17.15,1.3,25.02.01.3.04.59.07.89,1.39,12.81,2.81,29.49,7.4,43.79,3.85,11.99,20.34,13.08,26.01,1.84,15.9-31.54,12.03-71.47,5.21-105.38-1.96-10.62-5.46-20.94-6.69-31.68-1.93-27.98-1.04-33.68,2.12-38.64,8.78-13.76,28.1-15.91,39.99-4.74,3.71,3.48,7.06,7.27,9.98,10.9,13.28,16.59,15.84,38.3,20.12,58.44,11.6,54.79,8.12,116.13-25.6,162.76-20.87,31-60.77,45.45-93.61,23.71Z"/>
  <path d="M2244.65,1121.1c-68.89-1.74-96.06-77.93-113.84-133.42.58,29.86.13,60.55,5.06,89.07-.06,35.97-50.29,45.04-63.6,11.76-6.58-21.23-4.73-44.28-6.28-66.28-.75-21.87-.86-43.75-.25-65.62,1.97-52.84-.22-108.64,22.16-157.77,10.22-19,24.87-37.04,44.62-46.56,36.82-17.96,82.36,4.1,95.44,41.94,21.07,49.5-2.33,105.32-41.87,138.09,2.86,26.06,12.93,61.38,27.68,89.39,9.59,18.22,27.25,31.12,47.63,33.99,1.07.15,2.14.36,3.19.67,43.17,15.87,23.96,71.01-19.95,64.74ZM2135.06,876.96c-.59,5-1.04,10.02-1.42,15.05,13.9-13.97,31.77-27.21,35.45-47.8,2.26-10.67,1.48-23.44-5.9-31.97-7.12-2.16-13.66,11.78-17.25,16.9-6.29,15.18-8.83,31.6-10.87,47.82Z"/>
  <path d="M2331.47,1071.63c-146.92-11.94-122.26-222.13-36.72-294.71-.55.48-1.1.97-1.64,1.45-.03.02-.06.05-.35.31,38.44-37.07,106.55-40.07,129.03,15.48,16.51,44.2-7.73,101.46-51.44,119.73-21.15,7.94-46.77,13.56-69.05,7.27-4.23-1.19-8.55,1.64-8.99,6.01-4.28,42.16,4.62,83.1,57.34,79.91.19-.01.38-.03.57-.05,43.42-5.43,70.59-32.26,88.2-70.77.07-.16.15-.32.23-.47,8.75-16.07,25.71-30.41,44.79-29.45.44.02.89.08,1.31.19,11.61,2.84,16.7,16.14,17.98,26.91,2.72,16.94-5.23,32.49-13.57,46.61-11.62,22.11-27.2,42.07-46.64,57.83-31.42,23.1-71.7,38.32-111.06,33.75ZM2326.88,857.88c9.75-1.36,21.03-3.16,27.03-11.74.16-.23.3-.46.43-.7,3.2-5.85,6.89-13.34,7.18-20.4.19-4.62-4.1-8.15-8.61-7.11-13.97,3.22-24.89,16.39-33.06,29.22-3.02,4.73.45,10.97,6.06,10.82.04,0,.09,0,.13,0,.28,0,.56-.03.84-.07Z"/>
  <path d="M1393.78,456.25c-30.77,64.44-75.86,108.45-107.91,95.05s-35.7-77.68-8.15-143.57,82.02-118.46,107.91-95.05c42.93,38.82,36.42,84.37,8.15,143.57Z"/>
  <path d="M1499.98,364.03c-29.65,19.7-61.74,25.16-74.47,8.3-12.73-16.86,7.72-39.66,28.37-69.35,17.97-25.83,59.51-30.92,74.47-8.3,19.39,29.33-1.13,51.25-28.37,69.35Z"/>
  <path d="M1455.55,266.05c-19.95,29.49-47.55,46.72-65.73,35.96-18.18-10.76-7.93-39.62-.1-74.93,6.81-30.72,43.3-51.21,65.73-35.96,29.08,19.77,18.43,47.84.1,74.93Z"/>
  <path d="M1360.28,250.75c-2.95,35.48-18.57,64.03-39.68,63.55-21.12-.47-26.32-30.66-36.79-65.27-9.11-30.12,12.66-65.86,39.68-63.55,35.03,2.99,39.5,32.68,36.79,65.27Z"/>
</svg>